# xmcd
# Track frame offsets:
# 150
# 18784
# 33199
# 46571
# 60055
# 69770
# 81142
# 94311
# 105821
# 117976
# 135347
# 151099
# 168546
# 183366
# 199073
# 214015
# 228854
# 241031
# 261571
# 276338
#
# Disc length: 3852 seconds
# Revision: 0
# Processed by: cddbd v1.4PL0 Copyright (c) Steve Scherf et al.
# Submitted via: VisiTrax 2.9.5.181 - For more info visit www.synapsa.com
#
DISCID=ef0f0a14
DTITLE=Various Artist - Line Dance Fever 09
DYEAR=2003
DGENRE=Country
TTITLE0=The Groovegrass Boyz - Walkin Afther Midnight
TTITLE1=Montgomery Gentry - Hillybilly Shoes
TTITLE2=The Dean Brothers - Crazy Litlle Thing Called Love
TTITLE3=Ronan Hardman - Dance Above The Rainbow
TTITLE4=Perez Prado - Mambo Number 5
TTITLE5=Coast To Coast - The Hucklebuck
TTITLE6=Sara Evans - Cryin Game
TTITLE7=Leann Rimes - I Want To Be A Cowboys Sweetheart
TTITLE8=Danni Leigh - 29 Nights
TTITLE9=Dave Sheriff - Heart And Flowers
TTITLE10=Sharon B - Pretend
TTITLE11=Paul Rutter - On The Tracks To Tennessee
TTITLE12=Vaquero - Bury The Shovel
TTITLE13=Brady Seals - Love You To Much
TTITLE14=Jo Dee Messina - Bye Bye
TTITLE15=Deborah Allen - Is It Love Yet ?
TTITLE16=Tim Mcgraw - Seventeen
TTITLE17=Trini Triggs - Horse To Mexico
TTITLE18=Newton - Love And Affection
TTITLE19=Engelbert Humperdink - The Last Waltz
EXTD=
EXTT0=
EXTT1=
EXTT2=
EXTT3=
EXTT4=
EXTT5=
EXTT6=
EXTT7=
EXTT8=
EXTT9=
EXTT10=
EXTT11=
EXTT12=
EXTT13=
EXTT14=
EXTT15=
EXTT16=
EXTT17=
EXTT18=
EXTT19=
PLAYORDER=
